<?xml version="1.0" encoding="UTF-8" standalone="no"?><!-- Generator: Gravit.io --><svg xmlns="http://www.w3.org/2000/svg" xmlns:xlink="http://www.w3.org/1999/xlink" style="isolation:isolate" viewBox="0 0 1280 800" width="1280pt" height="800pt"><defs><clipPath id="_clipPath_SJlC3jdWn1qUFQ4PxwrcoS7TJ2tCcSg7"><rect width="1280" height="800"/></clipPath></defs><g clip-path="url(#_clipPath_SJlC3jdWn1qUFQ4PxwrcoS7TJ2tCcSg7)"><rect x="0" y="0" width="1280" height="800" transform="matrix(1,0,0,1,0,0)" fill="rgb(187,224,244)"/><path d=" M 980.366 346.702 L 980.366 346.702 L 980.366 353.142 L 962.378 353.142 L 962.378 346.702 L 962.378 346.702 Q 962.378 343.148 959.824 340.594 L 959.824 340.594 L 959.824 340.594 Q 957.27 338.04 953.717 338.04 L 953.717 338.04 L 847.12 338.04 L 847.12 338.04 Q 843.566 338.04 841.012 340.594 L 841.012 340.594 L 841.012 340.594 Q 838.459 343.148 838.459 346.702 L 838.459 346.702 L 838.459 453.298 L 838.459 453.298 Q 838.459 456.852 841.012 459.406 L 841.012 459.406 L 841.012 459.406 Q 843.566 461.96 847.12 461.96 L 847.12 461.96 L 953.717 461.96 L 953.717 461.96 Q 957.27 461.96 959.824 459.406 L 959.824 459.406 L 959.824 459.406 Q 962.378 456.852 962.378 453.298 L 962.378 453.298 L 962.378 413.769 L 922.848 413.769 L 922.848 395.558 L 980.366 395.558 L 980.366 453.298 L 980.366 453.298 Q 980.366 464.402 972.593 472.175 L 972.593 472.175 L 972.593 472.175 Q 964.82 479.948 953.717 479.948 L 953.717 479.948 L 847.12 479.948 L 847.12 479.948 Q 836.016 479.948 828.243 472.175 L 828.243 472.175 L 828.243 472.175 Q 820.47 464.402 820.47 453.298 L 820.47 453.298 L 820.47 346.702 L 820.47 346.702 Q 820.47 335.598 828.243 327.825 L 828.243 327.825 L 828.243 327.825 Q 836.016 320.052 847.12 320.052 L 847.12 320.052 L 953.717 320.052 L 953.717 320.052 Q 964.82 320.052 972.593 327.825 L 972.593 327.825 L 972.593 327.825 Q 980.366 335.598 980.366 346.702 Z  M 1023.005 479.948 L 1005.016 479.948 L 1005.016 320.052 L 1023.005 320.052 L 1023.005 479.948 Z  M 1054.095 479.948 L 1054.095 320.052 L 1200 320.052 L 1200 338.04 L 1072.084 338.04 L 1072.084 390.895 L 1174.905 390.895 L 1174.905 409.105 L 1072.084 409.105 L 1072.084 479.948 L 1054.095 479.948 Z " fill="rgb(0,0,0)"/><path d=" M 632.608 330.676 L 632.608 368.97 L 539.53 368.97 L 539.53 431.022 L 632.608 431.022 L 632.608 469.324 L 740.47 399.996 L 632.608 330.676 Z " fill="rgb(0,0,0)"/><path d=" M 80.175 256.87 L 80.175 543.13 L 438 543.13 L 438 256.87 L 80.175 256.87 Z  M 94.488 271.183 L 423.687 271.183 L 423.687 457.252 L 347.256 457.252 L 297.16 421.47 L 254.894 421.47 L 225.652 392.228 L 190.822 399.22 L 160.013 352.982 L 94.488 418.507 L 94.488 271.183 Z  M 348.544 314.122 C 330.784 314.185 316.402 328.566 316.339 346.326 C 316.339 364.024 330.846 378.53 348.544 378.53 C 366.242 378.53 380.748 364.024 380.748 346.326 C 380.748 328.628 366.242 314.122 348.544 314.122 Z " fill="rgb(0,0,0)"/></g></svg>