<?xml version="1.0" encoding="UTF-8" standalone="no"?><!-- Generator: Gravit.io --><svg xmlns="http://www.w3.org/2000/svg" xmlns:xlink="http://www.w3.org/1999/xlink" style="isolation:isolate" viewBox="0 0 512 512" width="512pt" height="512pt"><defs><clipPath id="_clipPath_VifVvEsfenDHgPz64qqa0i06I2DMa6wc"><rect width="512" height="512"/></clipPath></defs><g clip-path="url(#_clipPath_VifVvEsfenDHgPz64qqa0i06I2DMa6wc)"><rect x="0" y="0" width="512" height="512" transform="matrix(1,0,0,1,0,0)" fill="rgb(140,188,214)"/><g><path d=" M 409.6 419.2 L 102.4 419.2 C 81.28 419.2 64 401.92 64 380.8 L 64 131.2 C 64 110.08 81.28 92.8 102.4 92.8 L 409.6 92.8 C 430.72 92.8 448 110.08 448 131.2 L 448 380.8 C 448 401.92 430.72 419.2 409.6 419.2 Z " fill="rgb(255,255,255)"/><path d=" M 217.6 179.2 L 112 332.8 L 323.2 332.8 L 217.6 179.2 Z " fill="rgb(154,201,227)"/><path d=" M 262.261 257.133 L 262.261 257.133 L 262.261 260.791 L 252.046 260.791 L 252.046 257.133 L 252.046 257.133 Q 252.046 255.116 250.596 253.665 L 250.596 253.665 L 250.596 253.665 Q 249.146 252.215 247.128 252.215 L 247.128 252.215 L 186.594 252.215 L 186.594 252.215 Q 184.577 252.215 183.126 253.665 L 183.126 253.665 L 183.126 253.665 Q 181.676 255.116 181.676 257.133 L 181.676 257.133 L 181.676 317.667 L 181.676 317.667 Q 181.676 319.684 183.126 321.135 L 183.126 321.135 L 183.126 321.135 Q 184.577 322.585 186.594 322.585 L 186.594 322.585 L 248.606 322.585 L 248.606 322.585 Q 250.623 322.585 252.074 321.135 L 252.074 321.135 L 252.074 321.135 Q 253.524 319.684 253.524 317.667 L 253.524 317.667 L 253.242 295.219 L 230.794 295.219 L 230.794 284.878 L 263.457 284.878 L 263.739 317.667 L 263.739 317.667 Q 263.739 323.972 259.325 328.386 L 259.325 328.386 L 259.325 328.386 Q 254.911 332.8 248.606 332.8 L 248.606 332.8 L 186.594 332.8 L 186.594 332.8 Q 180.289 332.8 175.875 328.386 L 175.875 328.386 L 175.875 328.386 Q 171.461 323.972 171.461 317.667 L 171.461 317.667 L 171.461 257.133 L 171.461 257.133 Q 171.461 250.828 175.875 246.414 L 175.875 246.414 L 175.875 246.414 Q 180.289 242 186.594 242 L 186.594 242 L 247.128 242 L 247.128 242 Q 253.433 242 257.847 246.414 L 257.847 246.414 L 257.847 246.414 Q 262.261 250.828 262.261 257.133 Z " fill="rgb(0,0,0)"/><path d=" M 323.2 236.8 L 246.4 332.8 L 400 332.8 L 323.2 236.8 Z " fill="rgb(179,221,245)"/><path d=" M 327.269 332.8 L 319.131 332.8 L 319.131 246.414 L 327.269 246.414 L 327.269 332.8 Z " fill="rgb(0,0,0)"/><circle vector-effect="non-scaling-stroke" cx="361.6" cy="179.2" r="28.80000000000001" fill="rgb(179,221,245)"/><path d=" M 342.255 200.4 L 342.255 158 L 380.945 158 L 380.945 162.77 L 347.025 162.77 L 347.025 176.786 L 374.291 176.786 L 374.291 181.614 L 347.025 181.614 L 347.025 200.4 L 342.255 200.4 Z " fill="rgb(0,0,0)"/></g></g></svg>